# xmcd
#
# Track frame offsets:
#       150
#       13441
#       24837
#       38379
#       51391
#       65797
#       78280
#       90902
#       105057
#       119964
#       134091
#       147745
#       159949
#       173185
#       186922
#       199460
#       212584
#       225123
#       238219
#       252653
#
# Disc length: 3577 seconds
#
# Revision: 1
# Processed by: cddbd v1.5.2PL0 Copyright (c) Steve Scherf et al.
# Submitted via: FreeDbEdit v0.1
#
DISCID=1d0df714
DTITLE=Count Basie - 10 Jazz Legends, Volume 1 [CD7]
DYEAR=1900
DGENRE=Jazz
TTITLE0=Honeysuckle Rose
TTITLE1=Roseland Shuffle
TTITLE2=One O'Clock Jump
TTITLE3=John's Idea
TTITLE4=Topsy
TTITLE5=Panassié Stomp
TTITLE6=Jive at Five
TTITLE7=9:20 Special
TTITLE8=Harvard Blues
TTITLE9=The King
TTITLE10=Pennies From Heaven
TTITLE11=Exactly Like You
TTITLE12=London Bridge Is Falling Down
TTITLE13=The Dirty Dozens
TTITLE14=The Fives
TTITLE15=Oh! Red
TTITLE16=When the Sun Goes Down
TTITLE17=Red Wagon
TTITLE18=Oh! Lady, Be Good
TTITLE19=Easy Does It
EXTD=
EXTT0=
EXTT1=
EXTT2=
EXTT3=
EXTT4=
EXTT5=
EXTT6=
EXTT7=
EXTT8=
EXTT9=
EXTT10=
EXTT11=
EXTT12=
EXTT13=
EXTT14=
EXTT15=
EXTT16=
EXTT17=
EXTT18=
EXTT19=
PLAYORDER=
